# Neo Vitae omni routing node core: regular dodecahedron
mtllib modelomniroutingnodecore.mtl
o ModelOmniRoutingNodeCore
v 0.644338 0.644338 0.644338
v 0.644338 0.644338 0.355662
v 0.644338 0.355662 0.644338
v 0.644338 0.355662 0.355662
v 0.355662 0.644338 0.644338
v 0.355662 0.644338 0.355662
v 0.355662 0.355662 0.644338
v 0.355662 0.355662 0.355662
v 0.500000 0.589206 0.733543
v 0.589206 0.733543 0.500000
v 0.733543 0.500000 0.589206
v 0.500000 0.589206 0.266457
v 0.589206 0.266457 0.500000
v 0.733543 0.500000 0.410794
v 0.500000 0.410794 0.733543
v 0.410794 0.733543 0.500000
v 0.266457 0.500000 0.589206
v 0.500000 0.410794 0.266457
v 0.410794 0.266457 0.500000
v 0.266457 0.500000 0.410794
vt 0.093750 0.937500
vt 0.064029 0.915907
vt 0.075382 0.880968
vt 0.112118 0.880968
vt 0.123471 0.915907
vn 0.000000 0.850651 0.525731
vn 0.850651 0.525731 0.000000
vn 0.525731 0.000000 0.850651
vn 0.000000 0.850651 -0.525731
vn 0.850651 -0.525731 0.000000
vn 0.525731 0.000000 -0.850651
vn 0.000000 -0.850651 0.525731
vn -0.850651 0.525731 0.000000
vn -0.525731 0.000000 0.850651
vn 0.000000 -0.850651 -0.525731
vn -0.850651 -0.525731 0.000000
vn -0.525731 0.000000 -0.850651
usemtl None
f 9/1/1 1/2/1 10/3/1 16/4/1 5/5/1
f 10/1/2 1/2/2 11/3/2 14/4/2 2/5/2
f 11/1/3 1/2/3 9/3/3 15/4/3 3/5/3
f 6/1/4 16/2/4 10/3/4 2/4/4 12/5/4
f 4/1/5 14/2/5 11/3/5 3/4/5 13/5/5
f 4/1/6 18/2/6 12/3/6 2/4/6 14/5/6
f 7/1/7 19/2/7 13/3/7 3/4/7 15/5/7
f 6/1/8 20/2/8 17/3/8 5/4/8 16/5/8
f 7/1/9 15/2/9 9/3/9 5/4/9 17/5/9
f 18/1/10 4/2/10 13/3/10 19/4/10 8/5/10
f 19/1/11 7/2/11 17/3/11 20/4/11 8/5/11
f 20/1/12 6/2/12 12/3/12 18/4/12 8/5/12
